<svg xmlns="http://www.w3.org/2000/svg" viewBox="145 625 1195 215" preserveAspectRatio="xMidYMid meet">
<g fill="#ffffff"><g transform="translate(161.642386,825.405149)"><path d="M 49.8125 0 L 2.78125 -136.8125 L 33.125 -136.8125 L 69.046875 -27.8125 L 58.421875 -27.8125 L 95.09375 -136.8125 L 121.140625 -136.8125 L 157.546875 -27.8125 L 146.921875 -27.8125 L 183.09375 -136.8125 L 213.4375 -136.8125 L 166.15625 0 L 140.359375 0 L 103.4375 -111.53125 L 112.796875 -111.53125 L 75.859375 0 Z M 49.8125 0 "/></g></g><g fill="#ffffff"><g transform="translate(365.220126,825.405149)"><path d="M 80.921875 3.03125 C 67.265625 3.03125 55.164062 -0.128906 44.625 -6.453125 C 34.09375 -12.773438 25.875 -21.375 19.96875 -32.25 C 14.070312 -43.125 11.125 -55.300781 11.125 -68.78125 C 11.125 -82.601562 14.113281 -94.828125 20.09375 -105.453125 C 26.082031 -116.078125 34.132812 -124.460938 44.25 -130.609375 C 54.363281 -136.765625 65.832031 -139.84375 78.65625 -139.84375 C 88.9375 -139.84375 98.125 -138.070312 106.21875 -134.53125 C 114.3125 -131 121.140625 -126.15625 126.703125 -120 C 132.265625 -113.84375 136.519531 -106.800781 139.46875 -98.875 C 142.414062 -90.957031 143.890625 -82.53125 143.890625 -73.59375 C 143.890625 -71.394531 143.804688 -69.113281 143.640625 -66.75 C 143.472656 -64.394531 143.132812 -62.207031 142.625 -60.1875 L 33.640625 -60.1875 L 33.640625 -82.953125 L 126.4375 -82.953125 L 112.796875 -72.578125 C 114.472656 -80.835938 113.921875 -88.210938 111.140625 -94.703125 C 108.359375 -101.191406 104.144531 -106.332031 98.5 -110.125 C 92.851562 -113.925781 86.238281 -115.828125 78.65625 -115.828125 C 71.0625 -115.828125 64.3125 -113.925781 58.40625 -110.125 C 52.507812 -106.332031 47.957031 -100.9375 44.75 -93.9375 C 41.550781 -86.945312 40.289062 -78.476562 40.96875 -68.53125 C 40.125 -59.257812 41.429688 -51.164062 44.890625 -44.25 C 48.347656 -37.34375 53.238281 -31.945312 59.5625 -28.0625 C 65.882812 -24.1875 73.085938 -22.25 81.171875 -22.25 C 89.429688 -22.25 96.46875 -24.101562 102.28125 -27.8125 C 108.101562 -31.519531 112.703125 -36.328125 116.078125 -42.234375 L 139.34375 -30.859375 C 136.644531 -24.453125 132.472656 -18.675781 126.828125 -13.53125 C 121.179688 -8.382812 114.4375 -4.335938 106.59375 -1.390625 C 98.75 1.554688 90.191406 3.03125 80.921875 3.03125 Z M 80.921875 3.03125 "/></g></g><g fill="#ffffff"><g transform="translate(507.598029,825.405149)"><path d="M 80.921875 3.03125 C 67.265625 3.03125 55.164062 -0.128906 44.625 -6.453125 C 34.09375 -12.773438 25.875 -21.375 19.96875 -32.25 C 14.070312 -43.125 11.125 -55.300781 11.125 -68.78125 C 11.125 -82.601562 14.113281 -94.828125 20.09375 -105.453125 C 26.082031 -116.078125 34.132812 -124.460938 44.25 -130.609375 C 54.363281 -136.765625 65.832031 -139.84375 78.65625 -139.84375 C 88.9375 -139.84375 98.125 -138.070312 106.21875 -134.53125 C 114.3125 -131 121.140625 -126.15625 126.703125 -120 C 132.265625 -113.84375 136.519531 -106.800781 139.46875 -98.875 C 142.414062 -90.957031 143.890625 -82.53125 143.890625 -73.59375 C 143.890625 -71.394531 143.804688 -69.113281 143.640625 -66.75 C 143.472656 -64.394531 143.132812 -62.207031 142.625 -60.1875 L 33.640625 -60.1875 L 33.640625 -82.953125 L 126.4375 -82.953125 L 112.796875 -72.578125 C 114.472656 -80.835938 113.921875 -88.210938 111.140625 -94.703125 C 108.359375 -101.191406 104.144531 -106.332031 98.5 -110.125 C 92.851562 -113.925781 86.238281 -115.828125 78.65625 -115.828125 C 71.0625 -115.828125 64.3125 -113.925781 58.40625 -110.125 C 52.507812 -106.332031 47.957031 -100.9375 44.75 -93.9375 C 41.550781 -86.945312 40.289062 -78.476562 40.96875 -68.53125 C 40.125 -59.257812 41.429688 -51.164062 44.890625 -44.25 C 48.347656 -37.34375 53.238281 -31.945312 59.5625 -28.0625 C 65.882812 -24.1875 73.085938 -22.25 81.171875 -22.25 C 89.429688 -22.25 96.46875 -24.101562 102.28125 -27.8125 C 108.101562 -31.519531 112.703125 -36.328125 116.078125 -42.234375 L 139.34375 -30.859375 C 136.644531 -24.453125 132.472656 -18.675781 126.828125 -13.53125 C 121.179688 -8.382812 114.4375 -4.335938 106.59375 -1.390625 C 98.75 1.554688 90.191406 3.03125 80.921875 3.03125 Z M 80.921875 3.03125 "/></g></g><g fill="#ffffff"><g transform="translate(649.975887,825.405149)"><path d="M 79.90625 3.03125 C 66.757812 3.03125 55 -0.128906 44.625 -6.453125 C 34.257812 -12.773438 26.082031 -21.328125 20.09375 -32.109375 C 14.113281 -42.898438 11.125 -55.039062 11.125 -68.53125 C 11.125 -82.019531 14.15625 -94.160156 20.21875 -104.953125 C 26.289062 -115.742188 34.46875 -124.253906 44.75 -130.484375 C 55.039062 -136.722656 66.675781 -139.84375 79.65625 -139.84375 C 90.613281 -139.84375 100.304688 -137.648438 108.734375 -133.265625 C 117.171875 -128.890625 123.832031 -122.820312 128.71875 -115.0625 L 124.421875 -108.484375 L 124.421875 -191.4375 L 152.75 -191.4375 L 152.75 0 L 125.6875 0 L 125.6875 -27.8125 L 128.96875 -22.5 C 124.25 -14.238281 117.503906 -7.914062 108.734375 -3.53125 C 99.972656 0.84375 90.363281 3.03125 79.90625 3.03125 Z M 82.6875 -23.515625 C 90.613281 -23.515625 97.738281 -25.453125 104.0625 -29.328125 C 110.382812 -33.210938 115.359375 -38.566406 118.984375 -45.390625 C 122.609375 -52.222656 124.421875 -59.9375 124.421875 -68.53125 C 124.421875 -77.132812 122.609375 -84.804688 118.984375 -91.546875 C 115.359375 -98.285156 110.382812 -103.59375 104.0625 -107.46875 C 97.738281 -111.351562 90.613281 -113.296875 82.6875 -113.296875 C 74.769531 -113.296875 67.609375 -111.351562 61.203125 -107.46875 C 54.796875 -103.59375 49.820312 -98.285156 46.28125 -91.546875 C 42.738281 -84.804688 40.96875 -77.132812 40.96875 -68.53125 C 40.96875 -59.9375 42.738281 -52.222656 46.28125 -45.390625 C 49.820312 -38.566406 54.753906 -33.210938 61.078125 -29.328125 C 67.398438 -25.453125 74.601562 -23.515625 82.6875 -23.515625 Z M 82.6875 -23.515625 "/></g></g><g fill="#00b383"><g transform="translate(806.771233,825.405149)"><path d="M 16.6875 0 L 16.6875 -136.8125 L 44 -136.8125 L 44 -107.21875 L 40.46875 -111.78125 C 43.332031 -121.050781 48.554688 -128.046875 56.140625 -132.765625 C 63.722656 -137.484375 72.40625 -139.84375 82.1875 -139.84375 C 93.144531 -139.84375 102.878906 -136.9375 111.390625 -131.125 C 119.910156 -125.3125 125.601562 -117.597656 128.46875 -107.984375 L 120.375 -107.21875 C 124.414062 -118.175781 130.609375 -126.351562 138.953125 -131.75 C 147.304688 -137.144531 156.878906 -139.84375 167.671875 -139.84375 C 177.109375 -139.84375 185.660156 -137.648438 193.328125 -133.265625 C 201.003906 -128.890625 207.117188 -122.820312 211.671875 -115.0625 C 216.222656 -107.3125 218.5 -98.460938 218.5 -88.515625 L 218.5 0 L 189.921875 0 L 189.921875 -80.671875 C 189.921875 -87.585938 188.695312 -93.445312 186.25 -98.25 C 183.8125 -103.050781 180.441406 -106.757812 176.140625 -109.375 C 171.835938 -111.988281 166.820312 -113.296875 161.09375 -113.296875 C 155.363281 -113.296875 150.304688 -111.988281 145.921875 -109.375 C 141.535156 -106.757812 138.078125 -103.003906 135.546875 -98.109375 C 133.015625 -93.222656 131.75 -87.410156 131.75 -80.671875 L 131.75 0 L 103.4375 0 L 103.4375 -80.671875 C 103.4375 -87.585938 102.210938 -93.445312 99.765625 -98.25 C 97.316406 -103.050781 93.941406 -106.757812 89.640625 -109.375 C 85.347656 -111.988281 80.25 -113.296875 74.34375 -113.296875 C 68.613281 -113.296875 63.554688 -111.988281 59.171875 -109.375 C 54.785156 -106.757812 51.367188 -103.003906 48.921875 -98.109375 C 46.484375 -93.222656 45.265625 -87.410156 45.265625 -80.671875 L 45.265625 0 Z M 16.6875 0 "/></g></g><g fill="#00b383"><g transform="translate(1026.534077,825.405149)"><path d="M 80.921875 3.03125 C 67.265625 3.03125 55.164062 -0.128906 44.625 -6.453125 C 34.09375 -12.773438 25.875 -21.375 19.96875 -32.25 C 14.070312 -43.125 11.125 -55.300781 11.125 -68.78125 C 11.125 -82.601562 14.113281 -94.828125 20.09375 -105.453125 C 26.082031 -116.078125 34.132812 -124.460938 44.25 -130.609375 C 54.363281 -136.765625 65.832031 -139.84375 78.65625 -139.84375 C 88.9375 -139.84375 98.125 -138.070312 106.21875 -134.53125 C 114.3125 -131 121.140625 -126.15625 126.703125 -120 C 132.265625 -113.84375 136.519531 -106.800781 139.46875 -98.875 C 142.414062 -90.957031 143.890625 -82.53125 143.890625 -73.59375 C 143.890625 -71.394531 143.804688 -69.113281 143.640625 -66.75 C 143.472656 -64.394531 143.132812 -62.207031 142.625 -60.1875 L 33.640625 -60.1875 L 33.640625 -82.953125 L 126.4375 -82.953125 L 112.796875 -72.578125 C 114.472656 -80.835938 113.921875 -88.210938 111.140625 -94.703125 C 108.359375 -101.191406 104.144531 -106.332031 98.5 -110.125 C 92.851562 -113.925781 86.238281 -115.828125 78.65625 -115.828125 C 71.0625 -115.828125 64.3125 -113.925781 58.40625 -110.125 C 52.507812 -106.332031 47.957031 -100.9375 44.75 -93.9375 C 41.550781 -86.945312 40.289062 -78.476562 40.96875 -68.53125 C 40.125 -59.257812 41.429688 -51.164062 44.890625 -44.25 C 48.347656 -37.34375 53.238281 -31.945312 59.5625 -28.0625 C 65.882812 -24.1875 73.085938 -22.25 81.171875 -22.25 C 89.429688 -22.25 96.46875 -24.101562 102.28125 -27.8125 C 108.101562 -31.519531 112.703125 -36.328125 116.078125 -42.234375 L 139.34375 -30.859375 C 136.644531 -24.453125 132.472656 -18.675781 126.828125 -13.53125 C 121.179688 -8.382812 114.4375 -4.335938 106.59375 -1.390625 C 98.75 1.554688 90.191406 3.03125 80.921875 3.03125 Z M 80.921875 3.03125 "/></g></g><g fill="#00b383"><g transform="translate(1168.911979,825.405149)"><path d="M 79.90625 3.03125 C 66.757812 3.03125 55 -0.128906 44.625 -6.453125 C 34.257812 -12.773438 26.082031 -21.328125 20.09375 -32.109375 C 14.113281 -42.898438 11.125 -55.039062 11.125 -68.53125 C 11.125 -82.019531 14.15625 -94.160156 20.21875 -104.953125 C 26.289062 -115.742188 34.46875 -124.253906 44.75 -130.484375 C 55.039062 -136.722656 66.675781 -139.84375 79.65625 -139.84375 C 90.613281 -139.84375 100.304688 -137.648438 108.734375 -133.265625 C 117.171875 -128.890625 123.832031 -122.820312 128.71875 -115.0625 L 124.421875 -108.484375 L 124.421875 -191.4375 L 152.75 -191.4375 L 152.75 0 L 125.6875 0 L 125.6875 -27.8125 L 128.96875 -22.5 C 124.25 -14.238281 117.503906 -7.914062 108.734375 -3.53125 C 99.972656 0.84375 90.363281 3.03125 79.90625 3.03125 Z M 82.6875 -23.515625 C 90.613281 -23.515625 97.738281 -25.453125 104.0625 -29.328125 C 110.382812 -33.210938 115.359375 -38.566406 118.984375 -45.390625 C 122.609375 -52.222656 124.421875 -59.9375 124.421875 -68.53125 C 124.421875 -77.132812 122.609375 -84.804688 118.984375 -91.546875 C 115.359375 -98.285156 110.382812 -103.59375 104.0625 -107.46875 C 97.738281 -111.351562 90.613281 -113.296875 82.6875 -113.296875 C 74.769531 -113.296875 67.609375 -111.351562 61.203125 -107.46875 C 54.796875 -103.59375 49.820312 -98.285156 46.28125 -91.546875 C 42.738281 -84.804688 40.96875 -77.132812 40.96875 -68.53125 C 40.96875 -59.9375 42.738281 -52.222656 46.28125 -45.390625 C 49.820312 -38.566406 54.753906 -33.210938 61.078125 -29.328125 C 67.398438 -25.453125 74.601562 -23.515625 82.6875 -23.515625 Z M 82.6875 -23.515625 "/></g></g>
</svg>